<svg width="32" height="32" viewBox="0 0 32 32" fill="none" xmlns="http://www.w3.org/2000/svg">
<path d="M16.2889 2.65859L19.9212 0.177593C20.1488 0.0221551 20.4614 0.105905 20.5807 0.354343L22.4859 4.31915C22.5251 4.4008 22.5881 4.46872 22.6665 4.51401C22.745 4.55931 22.8352 4.57988 22.9256 4.57303L27.3118 4.24053C27.5866 4.21972 27.8154 4.44853 27.7946 4.72334L27.4621 9.10953C27.4552 9.19985 27.4758 9.29014 27.5211 9.36859C27.5664 9.44704 27.6343 9.50999 27.7159 9.54922L31.6808 11.4544C31.9292 11.5738 32.0129 11.8863 31.8575 12.1139L29.3765 15.7462C29.3254 15.821 29.2981 15.9095 29.2981 16.0001C29.2981 16.0906 29.3254 16.1791 29.3765 16.2539L31.8575 19.8862C32.0129 20.1138 31.9292 20.4264 31.6808 20.5457L27.7159 22.4509C27.6343 22.4901 27.5664 22.5531 27.5211 22.6315C27.4758 22.71 27.4552 22.8003 27.4621 22.8906L27.7946 27.2768C27.8154 27.5516 27.5866 27.7804 27.3118 27.7596L22.9256 27.4271C22.8352 27.4202 22.745 27.4408 22.6665 27.4861C22.5881 27.5314 22.5251 27.5993 22.4859 27.681L20.5807 31.6458C20.4613 31.8942 20.1488 31.978 19.9212 31.8225L16.2889 29.3415C16.2141 29.2904 16.1256 29.2631 16.035 29.2631C15.9445 29.2631 15.856 29.2904 15.7812 29.3415L12.1489 31.8225C11.9213 31.978 11.6087 31.8942 11.4894 31.6458L9.58419 27.681C9.54496 27.5993 9.48201 27.5314 9.40356 27.4861C9.32512 27.4408 9.23483 27.4202 9.1445 27.4271L4.75832 27.7596C4.4835 27.7804 4.25469 27.5516 4.2755 27.2768L4.608 22.8906C4.61485 22.8003 4.59428 22.71 4.54899 22.6315C4.50369 22.5531 4.43578 22.4901 4.35413 22.4509L0.389253 20.5457C0.140816 20.4263 0.0570657 20.1138 0.212503 19.8862L2.6935 16.2539C2.7446 16.1791 2.77193 16.0906 2.77193 16.0001C2.77193 15.9095 2.7446 15.821 2.6935 15.7462L0.212566 12.1138C0.0571282 11.8863 0.140878 11.5737 0.389316 11.4543L4.35413 9.54915C4.43578 9.50993 4.50369 9.44697 4.54899 9.36853C4.59428 9.29008 4.61485 9.19979 4.608 9.10947L4.2755 4.72328C4.25469 4.44847 4.4835 4.21965 4.75832 4.24047L9.1445 4.57297C9.23483 4.57981 9.32512 4.55924 9.40356 4.51395C9.48201 4.46865 9.54496 4.40074 9.58419 4.31909L11.4894 0.35428C11.6088 0.105843 11.9213 0.0220926 12.1489 0.17753L15.7812 2.65853C15.856 2.70964 15.9444 2.73699 16.035 2.73701C16.1256 2.73702 16.2141 2.70969 16.2889 2.65859Z" fill="#FFC639"/>
<path d="M16.035 28.151C22.7458 28.151 28.186 22.7108 28.186 16.0001C28.186 9.28928 22.7458 3.84912 16.035 3.84912C9.32425 3.84912 3.88409 9.28928 3.88409 16.0001C3.88409 22.7108 9.32425 28.151 16.035 28.151Z" fill="#FFE564"/>
</svg>
