<svg width="32" height="32" viewBox="0 0 32 32" fill="none" xmlns="http://www.w3.org/2000/svg">
<path d="M0.375153 16.0001C0.375153 7.37081 7.37084 0.375122 16.0001 0.375122C24.6293 0.375122 31.625 7.37081 31.625 16.0001C31.625 24.6293 24.6293 31.625 16.0001 31.625C7.37084 31.625 0.375153 24.6293 0.375153 16.0001Z" fill="#FDE364"/>
<path d="M11.5593 24.0964C11.5593 22.6401 12.7402 21.4592 14.1966 21.4592C15.6535 21.4592 16.8343 22.6401 16.8343 24.0964C16.8343 25.5528 15.6535 26.7337 14.1966 26.7337C12.7402 26.7337 11.5593 25.5528 11.5593 24.0964V24.0964ZM12.3646 14.1114C12.3646 16.1134 14.358 17.7359 16.817 17.7359C19.2761 17.7359 21.2694 16.1134 21.2694 14.1114C21.2694 12.1094 19.2761 10.487 16.817 10.487C14.358 10.487 12.3646 12.1094 12.3646 14.1114V14.1114ZM27.0576 27.0391C26.1525 26.353 24.8559 25.9228 23.4153 25.9228C20.6798 25.9228 18.4618 27.4726 18.4618 29.3841C18.4618 30.0844 18.7604 30.7357 19.2721 31.2805C22.2781 30.6399 24.9643 29.1359 27.0576 27.0391ZM31.6233 15.8672C31.594 12.3448 30.3992 9.10062 28.4053 6.50074C26.3861 7.12618 24.919 9.00843 24.919 11.2331C24.919 13.9687 27.137 16.1866 29.8725 16.1866C30.489 16.1866 31.0788 16.0731 31.6233 15.8672ZM18.9653 0.657494C17.9881 0.469656 16.9952 0.375148 16 0.375244C13.6326 0.375244 11.3887 0.902744 9.37795 1.84499C10.2388 3.49218 11.9623 4.61706 13.9496 4.61706C16.3853 4.61706 18.4254 2.92793 18.9653 0.657494V0.657494ZM7.08127 8.34199C5.62489 8.34199 4.44402 9.30356 4.44402 10.4892C4.44402 11.675 5.62489 12.6366 7.08127 12.6366C8.53814 12.6366 9.71902 11.675 9.71902 10.4892C9.71902 9.30356 8.53814 8.34199 7.08127 8.34199V8.34199ZM3.02245 17.2821C2.13708 17.2811 1.26652 17.5092 0.495392 17.9442C0.942017 21.5418 2.61177 24.7592 5.07514 27.1691C6.90145 26.3756 8.17927 24.5566 8.17927 22.4384C8.17927 19.5906 5.87027 17.2821 3.02245 17.2821V17.2821Z" fill="#FFC63A"/>
</svg>
