<svg width="256" height="255" viewBox="0 0 256 255" fill="none" xmlns="http://www.w3.org/2000/svg">
<path d="M128.145 18.8411C188.147 18.8411 236.788 67.4821 236.788 127.484C236.788 187.485 188.147 236.126 128.145 236.126C68.144 236.126 19.503 187.485 19.503 127.484C19.503 67.4821 68.144 18.8411 128.145 18.8411" fill="#DE5833"/>
<path d="M128.143 254.922C198.526 254.922 255.583 197.865 255.583 127.482C255.583 57.099 198.526 0.0419922 128.143 0.0419922C57.76 0.0419922 0.703003 57.099 0.703003 127.482C0.703003 197.865 57.76 254.922 128.143 254.922ZM128.143 244.302C63.625 244.302 11.323 192 11.323 127.482C11.323 62.964 63.625 10.662 128.143 10.662C192.661 10.662 244.963 62.964 244.963 127.482C244.963 192 192.661 244.302 128.143 244.302Z" fill="#DE5833"/>
<path d="M75.219 54.13C75.198 52.303 76.525 51.28 78.288 50.563C77.481 50.695 76.708 50.897 76.012 51.209C74.174 52.042 72.8 55.196 72.813 56.689C81.736 55.787 94.931 56.411 104.58 59.291C105.292 59.191 106.004 59.091 106.727 59.008C97.103 54.735 85.661 53.085 75.219 54.13" fill="#D5D7D8"/>
<path d="M77.048 43.1499C77.249 43.1139 77.453 43.0889 77.655 43.0549C75.73 43.2939 74.715 43.9819 73.27 44.2189C74.839 44.3579 80.784 47.1329 84.52 48.6589C85.044 48.4599 85.516 48.2389 85.901 47.9779C83.964 47.6919 79.151 43.3419 77.048 43.1499Z" fill="#D5D7D8"/>
<path d="M86.326 64.7561C85.791 64.9621 85.283 65.1771 84.843 65.4081C70.298 73.0711 63.873 90.9701 67.702 112.418C71.197 131.936 85.522 198.623 92.081 229.989C93.996 230.662 95.934 231.287 97.896 231.854C92.055 203.614 76.112 129.614 72.392 108.831C68.621 87.6881 72.29 72.5171 86.326 64.7561" fill="#D5D7D8"/>
<path d="M145.184 218.618C144.944 218.778 144.658 218.928 144.353 219.074C144.127 219.95 143.782 220.614 143.279 220.948C140.275 222.941 131.79 223.945 127.31 222.941C126.539 222.77 125.955 222.487 125.499 222.098C117.85 226.345 106.85 231.999 104.616 230.725C101.126 228.724 100.62 202.274 101.126 195.783C101.495 190.883 118.707 198.82 127.08 202.983C128.931 201.254 133.466 200.097 137.48 199.704C131.415 184.943 126.942 168.059 129.684 156.086C125.894 153.445 120.871 147.32 121.917 140.927C122.723 136.061 135.297 126.855 144.2 126.299C153.123 125.736 155.904 125.863 163.338 124.083L164.547 123.793C169.123 107.706 158.148 79.7189 145.906 67.4719C141.915 63.4809 135.779 60.9689 128.865 59.6429C126.206 55.9939 121.917 52.5049 115.845 49.2739C104.57 43.2879 90.636 40.8509 77.655 43.0549C77.453 43.0889 77.249 43.1139 77.048 43.1499C79.151 43.3419 83.964 47.6919 85.901 47.9779C85.516 48.2389 85.044 48.4599 84.52 48.6589C82.702 49.3509 80.231 49.7709 78.288 50.5629C76.525 51.2799 75.198 52.3029 75.219 54.1299C85.661 53.0849 97.103 54.7349 106.727 59.0079C106.004 59.0909 105.292 59.1909 104.58 59.2909C97.755 60.2509 91.482 62.0189 86.95 64.4099C86.737 64.5209 86.535 64.6409 86.326 64.7559C72.29 72.5169 68.621 87.6879 72.392 108.831C76.112 129.614 92.159 204.76 98 233C107.603 235.779 116.582 238 127.08 238C135.992 238 146.711 236.025 155 234C152.089 228.387 148.344 222.18 146.036 217.729C145.728 218.096 145.485 218.417 145.184 218.618ZM151.057 112.057C147.253 112.057 144.15 108.963 144.15 105.137C144.15 101.329 147.253 98.2339 151.057 98.2339C154.882 98.2339 157.973 101.329 157.973 105.137C157.974 106.046 157.796 106.946 157.449 107.785C157.102 108.625 156.592 109.388 155.95 110.031C155.308 110.674 154.545 111.184 153.705 111.531C152.866 111.879 151.966 112.057 151.057 112.057ZM155.218 86.0489C155.218 86.0489 150.861 83.5599 147.48 83.6019C140.532 83.6929 138.64 86.7629 138.64 86.7629C138.64 86.7629 139.806 79.4449 148.691 80.9129C153.508 81.7139 155.218 86.0489 155.218 86.0489V86.0489ZM81.963 95.0459C81.963 95.0459 78.834 88.0729 87.173 84.6559C95.521 81.2379 99.586 86.6009 99.586 86.6009C99.586 86.6009 93.524 83.8589 87.63 87.5629C81.746 91.2629 81.963 95.0459 81.963 95.0459V95.0459ZM89.253 109.908C89.2522 108.851 89.4598 107.804 89.864 106.828C90.2681 105.851 90.8609 104.964 91.6083 104.217C92.3557 103.47 93.2432 102.878 94.2198 102.474C95.1965 102.07 96.2432 101.863 97.3 101.864C98.3562 101.864 99.402 102.072 100.378 102.476C101.353 102.881 102.24 103.473 102.987 104.22C103.733 104.967 104.325 105.854 104.729 106.83C105.133 107.806 105.341 108.852 105.34 109.908C105.34 114.355 101.74 117.949 97.3 117.949C96.2433 117.951 95.1966 117.744 94.2199 117.34C93.2432 116.937 92.3557 116.345 91.6082 115.598C90.8607 114.851 90.2679 113.964 89.8638 112.988C89.4596 112.011 89.2521 110.965 89.253 109.908V109.908Z" fill="white"/>
<path d="M105.34 109.908C105.341 108.852 105.133 107.806 104.729 106.83C104.325 105.854 103.733 104.967 102.987 104.22C102.24 103.473 101.353 102.881 100.378 102.476C99.402 102.072 98.3562 101.864 97.3 101.864C96.2432 101.863 95.1965 102.07 94.2198 102.474C93.2432 102.878 92.3558 103.47 91.6083 104.217C90.8609 104.964 90.2681 105.852 89.864 106.828C89.4598 107.805 89.2522 108.851 89.253 109.908C89.2521 110.965 89.4596 112.011 89.8638 112.988C90.2679 113.964 90.8607 114.851 91.6082 115.598C92.3557 116.345 93.2432 116.937 94.2199 117.341C95.1966 117.744 96.2433 117.951 97.3 117.949C101.74 117.949 105.34 114.355 105.34 109.908ZM100.862 109.317C100.309 109.315 99.7795 109.094 99.3894 108.702C98.9993 108.31 98.7805 107.78 98.781 107.227C98.781 106.674 99.0007 106.143 99.3918 105.752C99.7829 105.361 100.313 105.142 100.866 105.142C101.42 105.142 101.95 105.361 102.341 105.752C102.732 106.143 102.952 106.674 102.952 107.227C102.952 107.501 102.898 107.773 102.793 108.027C102.688 108.28 102.534 108.511 102.34 108.705C102.146 108.899 101.915 109.053 101.662 109.158C101.408 109.263 101.136 109.317 100.862 109.317Z" fill="#2D4F8E"/>
<path d="M100.862 105.139C100.309 105.14 99.7795 105.361 99.3892 105.752C98.999 106.144 98.7802 106.674 98.781 107.227C98.781 108.381 99.72 109.32 100.862 109.317C101.416 109.317 101.948 109.097 102.34 108.705C102.732 108.313 102.952 107.781 102.952 107.227C102.952 106.953 102.898 106.681 102.793 106.427C102.688 106.174 102.534 105.943 102.34 105.749C102.146 105.556 101.915 105.402 101.662 105.297C101.408 105.192 101.136 105.139 100.862 105.139" fill="white"/>
<path d="M151.057 98.2339C147.253 98.2339 144.15 101.329 144.15 105.137C144.15 108.963 147.253 112.057 151.057 112.057C151.966 112.057 152.866 111.879 153.705 111.531C154.545 111.184 155.308 110.674 155.95 110.031C156.592 109.388 157.102 108.625 157.449 107.785C157.796 106.946 157.974 106.046 157.973 105.137C157.973 101.329 154.882 98.2339 151.057 98.2339ZM154.124 104.628C153.149 104.628 152.344 103.835 152.344 102.839C152.344 101.856 153.149 101.049 154.124 101.049C155.141 101.049 155.921 101.856 155.921 102.839C155.921 103.835 155.141 104.628 154.124 104.628Z" fill="#2D4F8E"/>
<path d="M154.124 101.049C153.149 101.049 152.344 101.856 152.344 102.839C152.344 103.835 153.149 104.628 154.124 104.628C154.36 104.631 154.595 104.587 154.814 104.499C155.033 104.41 155.232 104.278 155.399 104.112C155.566 103.945 155.699 103.747 155.788 103.528C155.878 103.31 155.923 103.075 155.921 102.839C155.921 101.856 155.141 101.049 154.124 101.049Z" fill="white"/>
<path d="M99.586 86.601C99.586 86.601 95.521 81.238 87.173 84.656C78.834 88.073 81.963 95.046 81.963 95.046C81.963 95.046 81.746 91.263 87.63 87.563C93.524 83.859 99.586 86.601 99.586 86.601Z" fill="url(#paint0_linear_113_15)"/>
<path d="M148.691 80.9129C139.806 79.4449 138.64 86.7629 138.64 86.7629C138.64 86.7629 140.532 83.6929 147.48 83.6019C150.861 83.5599 155.218 86.0489 155.218 86.0489C155.218 86.0489 153.508 81.7139 148.691 80.9129Z" fill="url(#paint1_linear_113_15)"/>
<path d="M144.2 126.299C135.297 126.855 122.723 136.061 121.917 140.927C120.871 147.32 125.894 153.445 129.684 156.086L129.715 156.109C133.504 158.745 158.733 167.256 171.25 167.02C183.781 166.776 204.361 159.102 202.101 152.953C199.851 146.802 179.412 158.38 158.094 156.404C142.306 154.937 139.519 147.864 143.015 142.698C147.412 136.205 155.421 143.93 168.631 139.977C181.861 136.035 200.363 128.979 207.228 125.137C223.101 116.288 200.586 112.618 195.268 115.073C190.227 117.402 172.681 121.83 164.547 123.793L163.338 124.083C155.904 125.863 153.123 125.736 144.2 126.299" fill="#FDD209"/>
<path d="M124.316 206.97C124.316 206.049 125.057 205.234 126.233 204.539C126.266 203.98 126.57 203.46 127.08 202.983C118.707 198.82 101.495 190.883 101.126 195.783C100.62 202.274 101.126 228.724 104.616 230.725C106.85 231.999 117.85 226.345 125.499 222.098C123.292 220.217 124.316 215.651 124.316 206.97" fill="#65BC46"/>
<path d="M145.925 217.686L146.036 217.729C152.89 220.374 166.534 225.353 169.497 224.266C173.492 222.739 172.492 190.813 168.008 189.796C164.416 188.999 150.665 198.688 145.255 202.635C146.212 206.676 147.37 214.68 145.925 217.686" fill="#65BC46"/>
<path d="M129.214 220.611C124.719 219.615 126.221 215.118 126.221 204.64C126.221 204.606 126.231 204.573 126.233 204.539C125.057 205.234 124.316 206.049 124.316 206.97C124.316 215.651 123.292 220.217 125.499 222.098C125.955 222.487 126.539 222.77 127.31 222.941C131.79 223.945 140.275 222.941 143.279 220.948C143.782 220.614 144.127 219.95 144.353 219.074C140.837 220.758 133.329 221.547 129.214 220.611" fill="#43A244"/>
<path d="M127.08 202.983C126.57 203.46 126.266 203.98 126.233 204.539C126.231 204.573 126.221 204.606 126.221 204.64C126.221 215.118 124.719 219.615 129.214 220.611C133.329 221.547 140.837 220.758 144.353 219.074C144.658 218.928 144.944 218.778 145.184 218.618C145.485 218.417 145.728 218.096 145.925 217.686C147.37 214.68 146.212 206.676 145.255 202.635C145.044 201.746 144.844 201.046 144.683 200.636C144.27 199.614 141.089 199.351 137.48 199.704C133.466 200.097 128.931 201.254 127.08 202.983" fill="#65BC46"/>
<defs>
<linearGradient id="paint0_linear_113_15" x1="94.3094" y1="95.046" x2="81.3879" y2="95.046" gradientUnits="userSpaceOnUse">
<stop stop-color="#394A9F"/>
<stop offset="1" stop-color="#6176B9"/>
</linearGradient>
<linearGradient id="paint1_linear_113_15" x1="150.411" y1="86.7629" x2="138.64" y2="86.7629" gradientUnits="userSpaceOnUse">
<stop stop-color="#394A9F"/>
<stop offset="1" stop-color="#6176B9"/>
</linearGradient>
</defs>
</svg>
