<svg width="1024" height="1024" viewBox="0 0 1024 1024" fill="none" xmlns="http://www.w3.org/2000/svg">
<path d="M512 1024C419.333 1024 333.667 1001.17 255 955.5C176.333 909.833 114.167 847.667 68.5 769C22.8333 690.333 0 604.667 0 512C0 442.667 13.5 376.333 40.5 313C67.5 249.667 103.833 195.167 149.5 149.5C195.167 103.833 249.667 67.5 313 40.5C376.333 13.5 442.667 0 512 0C581.333 0 647.667 13.5 711 40.5C774.333 67.5 828.833 103.833 874.5 149.5C920.167 195.167 956.5 249.667 983.5 313C1010.5 376.333 1024 442.667 1024 512C1024 604.667 1001.17 690.333 955.5 769C909.833 847.667 847.667 909.833 769 955.5C690.333 1001.17 604.667 1024 512 1024ZM832 336C832 331.333 830.5 327.5 827.5 324.5C824.5 321.5 820.667 320 816 320H592C587.333 320 583.5 321.5 580.5 324.5C577.5 327.5 576 331.333 576 336V368C576 372.667 577.5 376.5 580.5 379.5C583.5 382.5 587.333 384 592 384H648L520 525L401 320H496C500.667 320 504.5 318.5 507.5 315.5C510.5 312.5 512 308.667 512 304V272C512 267.333 510.5 263.5 507.5 260.5C504.5 257.5 500.667 256 496 256H272C267.333 256 263.5 257.5 260.5 260.5C257.5 263.5 256 267.333 256 272V304C256 308.667 257.5 312.5 260.5 315.5C263.5 318.5 267.333 320 272 320H317V321L448 551V704H400C395.333 704 391.5 705.5 388.5 708.5C385.5 711.5 384 715.333 384 720V752C384 756.667 385.5 760.5 388.5 763.5C391.5 766.5 395.333 768 400 768H624C628.667 768 632.5 766.5 635.5 763.5C638.5 760.5 640 756.667 640 752V720C640 715.333 638.5 711.5 635.5 708.5C632.5 705.5 628.667 704 624 704H576V548L725 384H816C820.667 384 824.5 382.5 827.5 379.5C830.5 376.5 832 372.667 832 368V336Z" fill="#5F01D1"/>
</svg>
