<svg width="48" height="48" viewBox="0 0 48 48" fill="none" xmlns="http://www.w3.org/2000/svg">
<path d="M6 10C6 8.93913 6.42143 7.92172 7.17157 7.17157C7.92172 6.42143 8.93913 6 10 6H38C39.0609 6 40.0783 6.42143 40.8284 7.17157C41.5786 7.92172 42 8.93913 42 10V38C42 39.0609 41.5786 40.0783 40.8284 40.8284C40.0783 41.5786 39.0609 42 38 42H10C8.93913 42 7.92172 41.5786 7.17157 40.8284C6.42143 40.0783 6 39.0609 6 38V10Z" fill="#CFD8DC"/>
<path d="M39 17.271C39.0019 17.3615 38.9678 17.4491 38.9052 17.5146C38.8425 17.58 38.7565 17.6179 38.666 17.62H36.867L28.703 35.799C28.651 35.919 28.533 35.999 28.406 36.001H28.402C28.3391 36.0006 28.2776 35.9822 28.2248 35.948C28.172 35.9138 28.1301 35.8652 28.104 35.808L24.23 27.769L20.05 35.818C20.0219 35.8741 19.9786 35.9211 19.925 35.9537C19.8714 35.9862 19.8097 36.003 19.747 36.002C19.6846 35.9992 19.6243 35.9791 19.5727 35.944C19.5211 35.9088 19.4804 35.86 19.455 35.803L11.203 17.621H9.333C9.24272 17.6179 9.15727 17.5795 9.09501 17.514C9.03275 17.4486 8.99863 17.3613 9 17.271V16.35C8.99867 16.3051 9.00625 16.2604 9.0223 16.2184C9.03835 16.1765 9.06256 16.1381 9.09352 16.1056C9.12449 16.073 9.16159 16.0469 9.2027 16.0288C9.2438 16.0107 9.28809 16.0009 9.333 16H15.99C16.0349 16.0009 16.0792 16.0107 16.1203 16.0288C16.1614 16.0469 16.1985 16.073 16.2295 16.1056C16.2604 16.1381 16.2846 16.1765 16.3007 16.2184C16.3167 16.2604 16.3243 16.3051 16.323 16.35V17.271C16.3249 17.3614 16.2909 17.4488 16.2285 17.5142C16.1661 17.5796 16.0804 17.6176 15.99 17.62H14.557L20.253 31.368L23.217 25.575L19.46 17.622H18.556C18.4655 17.6196 18.3796 17.5815 18.3171 17.5159C18.2547 17.4502 18.2208 17.3625 18.223 17.272V16.35C18.223 16.159 18.372 16.002 18.556 16.002H23.48C23.5247 16.0029 23.5689 16.0126 23.6098 16.0306C23.6508 16.0486 23.6878 16.0745 23.7187 16.1069C23.7497 16.1392 23.7739 16.1773 23.7901 16.219C23.8063 16.2608 23.8141 16.3053 23.813 16.35V17.272C23.813 17.464 23.664 17.622 23.48 17.622H22.613L24.775 22.57L27.347 17.622H25.77C25.725 17.6212 25.6806 17.6115 25.6394 17.5935C25.5982 17.5754 25.5609 17.5493 25.5299 17.5168C25.4988 17.4842 25.4745 17.4458 25.4584 17.4038C25.4423 17.3618 25.4347 17.317 25.436 17.272V16.35C25.4349 16.3052 25.4427 16.2606 25.459 16.2188C25.4752 16.177 25.4996 16.1389 25.5306 16.1065C25.5616 16.0742 25.5988 16.0483 25.6399 16.0304C25.6809 16.0124 25.7252 16.0028 25.77 16.002H30.554C30.741 16.002 30.887 16.158 30.887 16.35V17.272C30.8883 17.3169 30.8807 17.3616 30.8647 17.4036C30.8486 17.4455 30.8244 17.4839 30.7935 17.5164C30.7625 17.549 30.7254 17.5751 30.6843 17.5932C30.6432 17.6113 30.5989 17.6211 30.554 17.622H29.504L25.747 24.763L28.81 31.347L34.715 17.622H32.843C32.7524 17.6196 32.6664 17.5815 32.6038 17.5159C32.5412 17.4503 32.5071 17.3626 32.509 17.272V16.35C32.509 16.159 32.659 16.002 32.843 16.002H38.665C38.7098 16.0028 38.754 16.0124 38.7951 16.0304C38.8362 16.0483 38.8733 16.0742 38.9044 16.1065C38.9354 16.1389 38.9598 16.177 38.976 16.2188C38.9922 16.2606 39.0001 16.3052 38.999 16.35V17.271H39Z" fill="#37474F"/>
</svg>
